<?xml version="1.0" encoding="UTF-8"?>
<svg id="Layer_2" data-name="Layer 2" xmlns="http://www.w3.org/2000/svg" viewBox="0 0 78.61 96.78">
  <defs>
    <style>
      .cls-1 {
        fill: #e3c6a9;
        isolation: isolate;
      }
    </style>
  </defs>
  <g id="Layer_2-2" data-name="Layer 2">
    <path class="cls-1" d="M8.79,62.57l-.56,.44c-.65,.51-1.59,.43-2.14-.18L.4,56.5c-.26-.29-.4-.66-.4-1.05v-1.76c0-.49,.4-.89,.89-.89s.87-.38,.89-.85l.1-2.14c0-.28,.1-.54,.25-.78l.45-.7c.43-.67,.29-1.55-.32-2.06l-1.36-1.13c-.28-.23-.47-.56-.54-.92l-.22-1.17c-.1-.51,.07-1.03,.43-1.4l1.9-1.9c.24-.24,.4-.56,.45-.9l.16-1.19c.06-.43,.28-.81,.63-1.06l1.08-.79c.29-.21,.5-.51,.59-.86,.28-1.01,.36-2.24,1.02-3.12,.88-1.17,2.31-2.11,3.4-3.08l2.3-2.06c.66-.59,1.37-1.3,2.33-1.4,1.34-.14,2.85,.37,4.16-.17,1-.41,1.95-1.22,2.87-1.8,.25-.16,.55-.25,.84-.25h1.2c.5,0,.91-.21,1.2-.61,.51-.7,.07-1.26,1.13-1.31,.06,0,.14,0,.17-.06,.03-.04,.03-.1,.02-.15-.08-.91-.46-1.71-.71-2.58-.04-.15-.05-.3-.01-.45l.1-.41c.11-.45,.41-.84,.83-1.05l2.47-1.24c.34-.17,.61-.46,.75-.81l.17-.41c.11-.26,.28-.49,.51-.66l.52-.39c.06-.04,.12-.08,.18-.11l1.31-.56c.17-.07,.32-.17,.46-.3l2.35-2.21c.1-.09,.21-.17,.33-.24l2.54-1.38c.14-.08,.3-.13,.46-.16l2.9-.54c.43-.08,.8-.33,1.04-.7l1.41-2.21c.36-.57,1.05-.84,1.71-.68l.34,.08c.49,.12,1.02,0,1.4-.33l.24-.21c.16-.14,.37-.22,.58-.22h.53c.55,0,1.06-.29,1.35-.76l.35-.58c.1-.16,.17-.34,.2-.53,.18-1.02,1.28-1.59,2.22-1.14l2.69,1.27c.73,.35,1.54,.59,2.2,1.07,.82,.6,1.06,1.57,1.44,2.47,1.05,2.45,2.09,4.91,3.14,7.36,2.27,5.31,4.53,10.62,6.8,15.93l1.8,4.23c.53,1.25,.95,2.31,1.97,3.24,.74,.68,1.46,1.38,2.18,2.07,1.12,1.06,2.23,2.12,3.35,3.18,.47,.44,.62,1.12,.38,1.72l-1.27,3.19c-.11,.27-.08,.57,.08,.82l.08,.12c.33,.51,.34,1.17,.01,1.69-.55,.87-1.03,1.79-1.69,2.59-.32,.39-1.04,.66-1.2,1.18-.21,.71,.7,1.34,1.06,1.84,.37,.52,.4,1.21,.07,1.75l-.38,.61c-.22,.36-.57,.61-.98,.71l-.39,.09c-.21,.05-.4,.17-.52,.35l-2.56,3.55c-.07,.1-.16,.19-.25,.28l-.97,.83c-.31,.27-.47,.61-.54,1.01-.19,1.01-1.4,1.28-2.25,1.7-.52,.26-.98,.6-1.51,.84-.44,.2-.86,.15-1.28,.28-.48,.15-.99,.6-1.42,.87-.24,.14,.42,.85-.18,1.15-.23,.12-.68,.19-.94,.2-.29,0-.58-.03-.87,.04-.49,.12-.48,.48-.72,.82-.26,.36-.62,.64-.93,.95-.48,.39-1.04,.76-1.48,1.2-.09,.07-.17,.16-.25,.25l-2.3,2.93c-.14,.18-.24,.39-.29,.61l-.18,.75c-.04,.17-.11,.34-.21,.49l-1.56,2.43c-.39,.6-.77,1.21-1.16,1.81-.45,.71-.61,1.21-.83,2.02-.25,.95-1,1.71-1.54,2.51l-3.01,4.47-.09,.14c-.16,.23-.2,.53-.1,.8l.13,.37c.12,.34,.02,.72-.24,.96l-3.64,3.32c-.29,.26-.67,.41-1.06,.41h-.42c-.26,0-.52,.07-.75,.19l-1.34,.73c-.79,.43-1.87,.16-2.7-.02-.71-.16-.9-.87-.75-1.54l.36-1.6s.02-.07,.03-.11c.41-1.37,.74-2.84,1.19-4.23,.48-1.5,1.19-2.79,1.99-4.13,.45-.76,1.04-1.49,1.25-2.36,.18-.74,.03-1.57,0-2.32,0-.07,0-.14,.02-.2l.05-.27c.1-.52-.06-1.05-.43-1.42l-.22-.22c-.25-.25-.57-.41-.92-.45l-.48-.06c-.17-.02-.33-.09-.46-.2l-.55-.45c-.13-.11-.3-.18-.47-.2-1.38-.16-2.8-.03-4.15-.38-.16-.04-.33-.1-.43-.24-.31-.43,.03-.79-.5-1.11-.36-.22-.98-.31-1.39-.27l-1.95,.22c-.34,.04-.67,.19-.92,.43l-.76,.73c-.5,.48-1.26,.58-1.86,.23l-.06-.04c-.46-.26-.76-.74-.8-1.28l-.07-1.16c-.03-.44-.23-.85-.57-1.12l-1.11-.91c-.07-.06-.15-.11-.23-.16l-2.05-1.15c-.34-.19-.6-.5-.72-.88l-.44-1.33-.61-.25c-.22-.09-.47-.09-.68,0l-.36,.15c-.38,.16-.82,.03-1.07-.3l-1.6-2.22s-.06-.09-.09-.15l-.22-.46c-.18-.38-.6-.59-1-.5l-.31,.07c-.26,.06-.54,0-.75-.17l-1.4-1.11c-.11-.09-.2-.21-.26-.34l-.08-.18c-.24-.53-.91-.7-1.37-.34l.05,.02Z"/>
  </g>
</svg>